<svg id="Layer_1" data-name="Layer 1" xmlns="http://www.w3.org/2000/svg" viewBox="0 0 879.9 252.2"><defs><style>.cls-1{fill:#fff;}</style></defs><path class="cls-1" d="M615.4,79.3a65.9,65.9,0,0,0-46.8,19.4h93.6A66.3,66.3,0,0,0,615.4,79.3Z" transform="translate(-2 -3.1)"/><path class="cls-1" d="M549.2,145.5v66.2h19.4V98.7A66.1,66.1,0,0,0,549.2,145.5Z" transform="translate(-2 -3.1)"/><path class="cls-1" d="M681.6,145.5v66.2H662.2V98.7A66.1,66.1,0,0,1,681.6,145.5Z" transform="translate(-2 -3.1)"/><path class="cls-1" d="M568.6,98.7Z" transform="translate(-2 -3.1)"/><path class="cls-1" d="M568.6,211.7Z" transform="translate(-2 -3.1)"/><path class="cls-1" d="M769.6,103.5Z" transform="translate(-2 -3.1)"/><path class="cls-1" d="M769.6,197.2Z" transform="translate(-2 -3.1)"/><path class="cls-1" d="M258.7,98.7Z" transform="translate(-2 -3.1)"/><path class="cls-1" d="M258.7,192.3Z" transform="translate(-2 -3.1)"/><path class="cls-1" d="M438.8,211.7a65.9,65.9,0,0,0,46.8-19.4H392A65.7,65.7,0,0,0,438.8,211.7Z" transform="translate(-2 -3.1)"/><path class="cls-1" d="M438.8,79.3A65.9,65.9,0,0,0,392,98.7h93.6A66.3,66.3,0,0,0,438.8,79.3Z" transform="translate(-2 -3.1)"/><path class="cls-1" d="M372.6,145.5A65.9,65.9,0,0,0,392,192.3V98.7A66.1,66.1,0,0,0,372.6,145.5Z" transform="translate(-2 -3.1)"/><path class="cls-1" d="M485.6,98.7v93.6a66.1,66.1,0,0,0,0-93.6Z" transform="translate(-2 -3.1)"/><path class="cls-1" d="M392,98.7Z" transform="translate(-2 -3.1)"/><path class="cls-1" d="M392,192.3Z" transform="translate(-2 -3.1)"/><path class="cls-1" d="M706.1,168.7V98.8h78a66.2,66.2,0,0,0-78-11.6V55.7H686.7v43h0v113h19.4v-43Z" transform="translate(-2 -3.1)"/><path class="cls-1" d="M235.1,145.5V255.3h19.4V98.7A66.1,66.1,0,0,0,235.1,145.5Z" transform="translate(-2 -3.1)"/><path class="cls-1" d="M301.3,211.7a65.9,65.9,0,0,0,46.8-19.4H254.5A65.9,65.9,0,0,0,301.3,211.7Z" transform="translate(-2 -3.1)"/><path class="cls-1" d="M301.3,79.3a65.9,65.9,0,0,0-46.8,19.4h93.6A66.3,66.3,0,0,0,301.3,79.3Z" transform="translate(-2 -3.1)"/><path class="cls-1" d="M348.1,98.7v93.6a66.1,66.1,0,0,0,0-93.6Z" transform="translate(-2 -3.1)"/><path class="cls-1" d="M68.2,98.7H115a65.9,65.9,0,0,1-46.8,19.4H21.4A65.9,65.9,0,0,1,68.2,98.7Z" transform="translate(-2 -3.1)"/><path class="cls-1" d="M21.4,192.3V118.1A65.9,65.9,0,0,0,2,164.9v46.8H68.2A65.9,65.9,0,0,0,115,192.3Z" transform="translate(-2 -3.1)"/><path class="cls-1" d="M115,19.5V98.7a56,56,0,0,0,0-79.2Z" transform="translate(-2 -3.1)"/><path class="cls-1" d="M35.8,19.5H115a56,56,0,0,0-79.2,0Z" transform="translate(-2 -3.1)"/><path class="cls-1" d="M35.8,19.5A55.8,55.8,0,0,0,19.4,59.1H35.8Z" transform="translate(-2 -3.1)"/><rect class="cls-1" x="153.6" y="95.6" width="41.4" height="19.4"/><path class="cls-1" d="M162.8,211.7a67.9,67.9,0,0,0,47.8-19.4H115A67.9,67.9,0,0,0,162.8,211.7Z" transform="translate(-2 -3.1)"/><path class="cls-1" d="M210.6,98.7v93.6a66.1,66.1,0,0,0,0-93.6Z" transform="translate(-2 -3.1)"/><path class="cls-1" d="M210.6,19.5V98.7a56,56,0,0,0,0-79.2Z" transform="translate(-2 -3.1)"/><path class="cls-1" d="M131.4,19.5h79.2a56,56,0,0,0-79.2,0Z" transform="translate(-2 -3.1)"/><path class="cls-1" d="M131.4,19.5A56.2,56.2,0,0,0,115,59.1h16.4Z" transform="translate(-2 -3.1)"/><polygon class="cls-1" points="517.6 184.1 564.4 76.2 543.3 76.2 530.2 106.4 530.2 106.4 485.7 208.6 506.9 208.6 517.6 184.1"/><path class="cls-1" d="M768.9,197.2Z" transform="translate(-2 -3.1)"/><path class="cls-1" d="M815.7,211.7a65.9,65.9,0,0,0,46.8-19.4H768.9A65.9,65.9,0,0,0,815.7,211.7Z" transform="translate(-2 -3.1)"/><path class="cls-1" d="M749.5,145.5a65.9,65.9,0,0,0,19.4,46.8V145.5Z" transform="translate(-2 -3.1)"/><path class="cls-1" d="M815.7,79.3H768.9a65.9,65.9,0,0,0,46.8,19.4h46.8A66.3,66.3,0,0,0,815.7,79.3Z" transform="translate(-2 -3.1)"/><path class="cls-1" d="M862.5,98.7v93.6a66.1,66.1,0,0,0,0-93.6Z" transform="translate(-2 -3.1)"/><path class="cls-1" d="M860.3,3.1H749.5V32.5a65.9,65.9,0,0,0,19.4,46.8V22.5h91.4V3.1Z" transform="translate(-2 -3.1)"/></svg>