<?xml version="1.0" encoding="utf-8"?>
<!-- Generator: Adobe Illustrator 25.0.1, SVG Export Plug-In . SVG Version: 6.00 Build 0)  -->
<svg version="1.2" baseProfile="tiny" id="Layer_1" xmlns="http://www.w3.org/2000/svg" xmlns:xlink="http://www.w3.org/1999/xlink"
	 x="0px" y="0px" viewBox="0 0 800 599.7" overflow="visible" xml:space="preserve">
<path fill="#616161" d="M601.8,590.7c-126.8,0-253.6,0-380.5,0c-7.6-1.3-15.2-2.5-22.8-4c-94.9-19.4-162.7-96.2-171.2-193.9
	c-7.9-90.6,48.3-178.4,135.9-213c3.4-1.4,7.1-5.3,8.2-8.8C212,48.9,338.7-19.1,463,14.8c93.8,25.6,164.3,108.7,173.7,204.9
	c0.5,5.5,3,7.3,7.7,9c62.7,22.3,103.1,65.6,120.9,129.6c2.7,9.7,4,19.9,6,29.8c0,11.1,0,22.1,0,33.2c-0.5,2.4-1.2,4.7-1.6,7.1
	c-11,70.7-49.5,120.6-115.3,148.4C637.9,583.9,619.4,586.2,601.8,590.7z M411.3,537.5C411.3,537.6,411.3,537.6,411.3,537.5
	c56.5,0,112.9,0.1,169.4,0c7.7,0,15.5-0.5,23.2-1.5c93.3-11.9,144.7-120.1,95.1-200c-21.2-34.1-51.8-54.4-91-62.2
	c-14.9-3-22.3-12.4-22.9-27.3c-0.3-6.9-0.7-13.8-1.4-20.7c-8.7-90.7-85-163-175.8-166.4c-88.7-3.4-166.6,54.2-188.9,140.3
	c-3.7,14.2-11.4,21.9-25.5,26.1C115.3,249,67.7,328.2,83.1,408.3c14.3,74.3,79,128.6,154.6,129.1
	C295.6,537.9,353.4,537.5,411.3,537.5z"/>
<path fill="#616161" d="M425.7,256.4c0,18.9,0,35.4,0,52c0,49.2,0.1,98.5,0,147.7c0,20.7-18.9,34.2-36.6,26.3
	c-11.6-5.1-16.6-14.5-16.5-27.2c0.1-62.5,0.1-125,0.1-187.5c0-3,0-6,0-10.4c-2.8,2.4-4.6,3.8-6.2,5.4
	c-18.2,18.2-36.3,36.5-54.7,54.5c-9.8,9.6-23.6,10.5-34.1,3c-10-7.1-14.1-20.5-9.1-31.7c1.6-3.7,4.3-7.2,7.1-10
	c34.5-34.7,69.2-69.3,103.9-103.9c12.1-12,27.6-12,39.7,0.1c34.7,34.5,69.3,69.1,103.9,103.8c11.6,11.7,12.1,27.7,1.5,38.5
	c-10.8,11.1-27.2,10.7-39.1-1.1C465.9,296.6,446.6,277.3,425.7,256.4z"/>
</svg>
