<svg id="Layer_1" data-name="Layer 1" xmlns="http://www.w3.org/2000/svg" viewBox="0 0 800 800"><path d="M111.7,430.5c-8,0-15.8.4-23.6,1,7.1,147,128.1,265.9,281.5,279.9a234.6,234.6,0,0,0,2.6-34.8C372.2,540.7,255.6,430.5,111.7,430.5Z"/><path d="M711.9,430.9c-4.7-.3-9.3-.4-14.1-.4-143.8,0-260.5,110.2-260.5,246.1a234.8,234.8,0,0,0,2.5,33.8C589,692.5,705.3,575.1,711.9,430.9Z"/><path d="M688.3,369.5c8,0,15.8-.4,23.6-1-7.1-147-128.1-265.9-281.5-279.9a234.6,234.6,0,0,0-2.6,34.8C427.8,259.3,544.4,369.5,688.3,369.5Z"/><path d="M88.1,369.1c4.7.3,9.3.4,14.1.4,143.8,0,260.5-110.2,260.5-246.1a234.8,234.8,0,0,0-2.5-33.8C211,107.5,94.7,224.9,88.1,369.1Z"/><path d="M400,308.4A187.1,187.1,0,0,0,239.1,400a187.1,187.1,0,0,0,321.8,0A187.1,187.1,0,0,0,400,308.4Zm0,148.1a56.9,56.9,0,1,1,56.8-56.9A56.8,56.8,0,0,1,400,456.5Z"/></svg>