<svg id="Layer_1" data-name="Layer 1" xmlns="http://www.w3.org/2000/svg" xmlns:xlink="http://www.w3.org/1999/xlink" viewBox="0 0 96.79 80.08"><defs><style>.cls-1{fill:none;}.cls-2{clip-path:url(#clip-path);}</style><clipPath id="clip-path" transform="translate(-3.6 -11.93)"><rect class="cls-1" x="3.61" y="11.99" width="96.77" height="80.02"/></clipPath></defs><g class="cls-2"><path d="M59.19,92c-2.89-.92-4.62-3.27-6.47-5.4a4.88,4.88,0,0,1,.11-6.16,13.66,13.66,0,0,1,1-1.11L72.92,60.45c.24-.24.53-.43.79-.65,0-.1,0-.19-.09-.29h-1c-20.92,0-41.82,0-62.74,0-4.22,0-6.45-2.86-6.23-6.21.08-1.05,0-2.12,0-3.19,0-3.58,2.1-5.68,5.68-5.68H73.58l-.81-.85L53.61,24.55c-2-2.05-2.71-4.64-1.17-6.68a27.25,27.25,0,0,1,5.16-5.13,4.81,4.81,0,0,1,5.95.53c.34.28.64.58,1,.9Q81.07,30.67,97.6,47.06a9.31,9.31,0,0,1,2.79,4V53a9.44,9.44,0,0,1-2.71,4Q81.38,73.07,65.14,89.25a9.56,9.56,0,0,1-4,2.76Z" transform="translate(-3.6 -11.93)"/></g></svg>