<svg id="Layer_1" data-name="Layer 1" xmlns="http://www.w3.org/2000/svg" viewBox="0 0 659.67 361.57"><defs><style>.cls-1{fill:#fff;}</style></defs><path class="cls-1" d="M668.33,45c-2.85,9.31-9,16.22-15.76,23Q508.1,212.18,363.8,356.59c-12.88,12.89-27.71,15.74-41.26,7.7a46.52,46.52,0,0,1-8.93-7.3Q166.91,210.41,20.28,63.78c-9.52-9.51-14.3-20.27-10-33.71C13.78,18.85,21,11.11,32.68,8.36a50.69,50.69,0,0,1,11.49-1q294.31-.06,588.62-.18c19,0,29.78,9.18,35.54,26.17Z" transform="translate(-8.67 -7.22)"/></svg>