<?xml version="1.0" encoding="utf-8"?>
<!-- Generator: Adobe Illustrator 25.0.1, SVG Export Plug-In . SVG Version: 6.00 Build 0)  -->
<svg version="1.2" baseProfile="tiny" id="Layer_1" xmlns="http://www.w3.org/2000/svg" xmlns:xlink="http://www.w3.org/1999/xlink"
	 x="0px" y="0px" viewBox="0 0 300 300" overflow="visible" xml:space="preserve">
<path fill="#D3D3D3" d="M251.2,117.2v9.1c-0.1,0.4-0.3,0.9-0.3,1.3c-0.6,5.8-2.1,11.4-4.2,16.8c-5,12.9-12.8,24-21.9,34.3
	c-20.6,23.2-45.1,41.7-71.4,57.9c-2.4,1.5-4.8,1.4-7.1-0.2c-11-7.5-22.2-14.6-32.9-22.5c-16.9-12.5-32.3-26.6-45.2-43.3
	c-7.4-9.6-13.5-19.8-16.9-31.5c-1.1-3.9-1.7-7.9-2.5-11.9v-9.5c0.2-0.6,0.3-1.1,0.4-1.7c1.4-13.4,6.3-25.2,15.3-35.3
	c9.3-10.4,20.9-16.8,34.9-17.9c18.4-1.4,33.4,5.7,45.2,19.6c1.9,2.3,3.6,4.8,5.4,7.3c1.3-1.8,2.5-3.7,3.8-5.4
	c1.3-1.8,2.8-3.5,4.4-5.1c15.7-15.5,34.1-20.9,55.2-13.6c18.6,6.5,29.9,20.4,35.4,39.1C250,108.8,250.4,113.1,251.2,117.2z"/>
</svg>
