<svg id="Layer_1" data-name="Layer 1" xmlns="http://www.w3.org/2000/svg" viewBox="0 0 800 800"><defs><style>.cls-1{fill:#fff;}</style></defs><path class="cls-1" d="M314.3,446.42H265.51c-13.47,0-26.94.23-40.4-.09-14.09-.34-18.69-4.56-18.81-18.55q-.47-55,0-110c.13-13.9,5.07-18.29,19-18.38,26.05-.15,52.11-.05,78.17-.05H314.3c0-4-.05-7.37,0-10.76.6-33.42-.65-67,2.2-100.23C323.76,103.69,388.24,43.25,473,40.47c34.52-1.13,69.1-.49,103.64-.4,12.16,0,17.1,5,17.16,17.22q.26,51.5,0,103c-.05,13.17-4.64,17.93-18.14,18.25-23.71.56-47.42.57-71.14.93-26.88.41-37.89,11-38.39,38-.48,26.32-.1,52.66-.1,80h10.27q45.24,0,90.48,0c19,0,23.49,4.45,23.5,23.17q.06,52.36,0,104.74c0,15.64-4.15,19.83-19.83,19.9-31.33.14-62.66.06-94,.07H466.09v11.33q0,138.2,0,276.38c0,24.14-3,27.08-27.46,27.09q-51,0-101.9,0c-18,0-22.41-4.38-22.42-22.25q0-139.95,0-279.91Z"/></svg>