<svg id="Layer_1" data-name="Layer 1" xmlns="http://www.w3.org/2000/svg" viewBox="0 0 800 800"><defs><style>.cls-1{fill:#fff;}</style></defs><path class="cls-1" d="M386.05,43H426.5a58,58,0,0,0,6.1,1c53.56,3.67,103.33,18.87,148.07,49.06C638.31,132,674.09,185.44,686.84,254c1.35,7.25,2.16,14.6,3.22,21.9v34.86a46.06,46.06,0,0,0-1,5.41c-3,42.17-13.29,82.37-33.5,119.66C617,507,559.06,551.17,477.5,560.93c-39.09,4.67-76-2.16-107.84-27-7.17-5.6-13-12.91-19.64-19.6-5.63,20.55-12.23,41.11-16.84,62.1C318.49,643.48,285.92,701.82,246.6,757h-4.18c-1-2.51-2.7-5-3-7.54-2.77-22.82-6.17-45.6-7.66-68.5-2-29.93-1.93-60,5.34-89.4C254,523.32,271,455.12,287.64,386.84a23.89,23.89,0,0,0-.68-13.17c-10.22-27.86-14-56.31-8.13-85.55s19.17-53.78,45.75-69.24c24.69-14.35,56.11-11.49,74.36,6.73,12.79,12.78,17.79,29.17,16.15,46.57A293.8,293.8,0,0,1,405.85,322c-8.33,30.41-18.51,60.3-27.1,90.65-8.29,29.28,3.07,56.46,28.77,70.89,22.36,12.55,46,11.72,69.62,4.9,36.71-10.59,62.3-35.15,80.37-67.76,26.57-47.92,35-99.78,27.71-153.57C577,206.23,543.28,163,487.68,137.32c-39.07-18-80.43-21.68-122.64-16.07-56.42,7.5-103.17,32.37-137.11,79-43.54,59.83-47.77,144.53-1.52,204.8,2.69,3.51,4,9.75,3,14.11-3.3,15.64-7.7,31.06-11.93,46.5-2.47,9-6.43,11.1-14.94,6.94-8.08-4-16.17-8.36-23.2-13.9-31.72-25-49.85-58.84-60.78-96.86-3.88-13.49-5.83-27.54-8.66-41.34V289.83c.94-7.09,1.83-14.2,2.83-21.28,8-57.39,32.88-106.4,74.68-146.41C230.76,80.68,283.51,58.33,342,48.6,356.6,46.17,371.37,44.84,386.05,43Z"/></svg>