<svg id="Layer_1" data-name="Layer 1" xmlns="http://www.w3.org/2000/svg" viewBox="0 0 800 800"><defs><style>.cls-1{fill:#fff;}</style></defs><path class="cls-1" d="M416.73,43H532.48c.39,6,.63,12,1.2,18,7.27,77.46,68.54,144.2,145,157.62,11.59,2,23.39,2.85,35.1,4.23V337.25c-2.08.13-4.16.41-6.24.38a288.17,288.17,0,0,1-137.78-36.88c-12.48-6.93-24.28-15.09-37.14-23.16,0,2.91,0,5.35,0,7.8q.36,122.36.62,244.7a284.82,284.82,0,0,1-2,34C520.26,655.5,448.06,733.38,357.59,751.3c-13.15,2.61-26.57,3.84-39.87,5.7H303.78c-11.5-1.41-23.06-2.41-34.47-4.3-84.59-14.07-157.07-81.87-176.06-165.2-3.49-15.29-4.74-31.09-7-46.65v-9.76c.37-2.73.93-5.45,1.08-8.19,1.87-35,11.39-67.8,29.66-97.58,42.06-68.55,103.77-105,183.93-109.84,14-.84,28.16.8,42.14,1.29V435.46c-16.55-4.55-32.6-6.6-48.86-3.57-44.4,8.27-73.5,34.13-85.83,77.47-11.52,40.48,4,83.79,37.86,109.88,33.33,25.69,79,29.43,115.33,8.49C398.62,606.35,416,573.54,416,530.89q-.06-238.74.22-477.47C416.23,49.94,416.56,46.47,416.73,43Z"/></svg>