<svg id="Layer_1" data-name="Layer 1" xmlns="http://www.w3.org/2000/svg" viewBox="0 0 300 300"><path d="M262.5,288.5c-7-1.4-12.2-5.7-17.1-10.6-18.1-18.3-36.3-36.4-54.5-54.6-4.1-4.1-8-8.3-9.2-14.5-30.4,19.7-62.7,24.7-97,13.4a103,103,0,0,1-55.4-42.8C-.1,133.9,7.5,75.4,47.2,39.3s98-37.2,139.7-4.6a106.3,106.3,0,0,1,32.6,42.7,108.6,108.6,0,0,1-10.8,104.2c9.5,2,14.6,9.5,20.7,15.5,16.2,16,32.1,32.2,48.3,48.1,5,5,9.4,10.2,10.8,17.3v6c-1.6,3.6-2.7,7.4-4.8,10.7-3.4,5.4-9.1,7.9-15.2,9.3ZM119.8,200.7c44.6-.1,81-36.5,80.9-80.9a80.9,80.9,0,0,0-161.7,0C39,164.5,75.3,200.8,119.8,200.7Z"/></svg>