<svg id="Layer_1" data-name="Layer 1" xmlns="http://www.w3.org/2000/svg" viewBox="0 0 800 800"><defs><style>.cls-1{fill:#fff;}</style></defs><path class="cls-1" d="M491.41,760H276.25c-3.22-.39-6.44-.81-9.67-1.18-21.6-2.44-43.47-3.52-64.76-7.59-57.26-10.92-102-40.68-131.27-91.91-18.26-32-24.72-67.37-27.76-103.55-1-12.07-1.86-24.16-2.79-36.24V276.25c.4-3.45.81-6.89,1.2-10.34,2.42-21.38,3.57-43,7.47-64.11C63.59,121,121.08,63.93,201.61,48.2c30.55-6,61.44-6.46,92.36-7.08,5.82-.12,11.62-.74,17.44-1.12h180c3.93.35,7.86.78,11.79,1,29.38,2,59.05,2,88.09,6.35C675.47,60,731.55,113.47,750.39,196.3c6.59,29,7.76,58.37,8.33,87.87.18,9.08.84,18.16,1.28,27.24v180c-.43,8.37-1.09,16.75-1.26,25.13-.59,29.52-1.59,59-8.64,87.88-18.75,76.79-65.63,126.07-142.88,145.15C578,756.8,548,758,518,758.72,509.11,758.94,500.26,759.56,491.41,760ZM693.89,389.61h.92c0-26.72.84-53.47-.21-80.14-1.25-31.55-2.06-63.35-6.78-94.47-6.93-45.6-31.84-78.77-76.51-95A234.66,234.66,0,0,0,537,106.25c-49.86-1.37-99.75-1.93-149.63-2.25-35.61-.22-71.24.28-106.85.86-26.48.43-52.91,1.61-78.77,8.38-43.61,11.41-72.69,37.92-85.94,81.4-9.4,30.82-11.87,62.59-12.09,94.46-.54,75.69-.8,151.4,0,227.09a369.52,369.52,0,0,0,7,69c11.3,55.82,44.91,91.28,101.79,101.45a451,451,0,0,0,71.19,6.95c68.42,1.16,136.86,1.61,205.28.88,31.3-.33,62.84-2.16,93.77-6.7,54.92-8.07,92.06-43.28,103.26-96.38a352.83,352.83,0,0,0,7.49-64.05C694.66,481.49,693.89,435.54,693.89,389.61Z"/><path class="cls-1" d="M584.76,399.8c.15,102-82.21,184.45-184.39,184.67A184.27,184.27,0,0,1,215.53,400.3C215.25,298,298,215,400.22,215.21A184.44,184.44,0,0,1,584.76,399.8Zm-64.88.51a119.78,119.78,0,1,0-120,119.36A119.34,119.34,0,0,0,519.88,400.31Z"/><path class="cls-1" d="M635.18,207.75a43.06,43.06,0,1,1-42.76-42.91A42.87,42.87,0,0,1,635.18,207.75Z"/></svg>