<svg id="Layer_1" data-name="Layer 1" xmlns="http://www.w3.org/2000/svg" viewBox="0 0 300 300"><defs><style>.cls-1{fill:#ccc;}.cls-2{fill:#555;}</style></defs><path class="cls-1" d="M150,278h-4.7v-2h5v2Zm5.4-.1v-2l5-.3v2Zm-15.1-.3-5-.4.2-2,4.9.4Zm25.1-.5-.2-2,4.9-.7.3,2Zm-35.1-.6-5-.9.4-1.9,4.9.8Zm45.1-1-.4-2,4.8-1,.5,1.9Zm-55-.9-4.9-1.3.6-1.9,4.8,1.2Zm64.8-1.5-.6-1.9,4.8-1.4.6,1.9Zm-74.5-1.2-4.8-1.7.7-1.8,4.7,1.6Zm84-1.9-.6-1.9,4.5-1.8.8,1.9Zm-93.5-1.6-4.6-2,.8-1.8,4.6,2ZM204,266.1l-.8-1.8,4.4-2.2.9,1.8C207.1,264.7,205.5,265.4,204,266.1ZM92,264.2a37.5,37.5,0,0,1-4.4-2.4l.9-1.7,4.4,2.3Zm121-2.7-1-1.7,4.2-2.5,1.1,1.7ZM83.2,259.3,79,256.6l1.1-1.7,4.2,2.7Zm138.3-3-1.1-1.7,4.1-2.8,1.2,1.6ZM74.8,253.7l-4-3,1.2-1.6,4,3Zm154.9-3.4-1.3-1.5,3.8-3.2,1.3,1.5ZM66.9,247.5l-3.8-3.3,1.4-1.5,3.7,3.3Zm170.4-3.7-1.4-1.5c1.3-1.1,2.5-2.3,3.6-3.4l1.4,1.4C239.8,241.5,238.5,242.7,237.3,243.8ZM59.5,240.7,56,237.1l1.4-1.4,3.5,3.6Zm184.9-4-1.4-1.4,3.2-3.7,1.6,1.3ZM52.6,233.3l-3.2-3.9,1.6-1.2c1,1.3,2,2.6,3.1,3.8ZM251,229l-1.6-1.2,3-4L254,225ZM46.3,225.4c-1-1.3-1.9-2.7-2.9-4.1l1.7-1.1,2.8,4.1Zm210.6-4.6-1.7-1.1a49.4,49.4,0,0,0,2.7-4.2l1.7,1.1ZM40.7,217.1l-2.6-4.3,1.8-1c.8,1.4,1.6,2.9,2.5,4.2Zm221.5-4.9-1.8-.9,2.4-4.4,1.7.9C263.8,209.3,263,210.8,262.2,212.2ZM35.7,208.4l-2.2-4.6,1.8-.8,2.2,4.4Zm231.1-5.1-1.9-.9c.7-1.5,1.4-3,2-4.5l1.9.7C268.1,200.2,267.4,201.7,266.8,203.3ZM31.5,199.2c-.7-1.5-1.3-3.1-1.9-4.6l1.9-.7,1.8,4.6Zm239.1-5.3-1.9-.7c.6-1.5,1.2-3.1,1.7-4.7l1.9.6C271.8,190.7,271.2,192.3,270.6,193.9ZM28,189.8a44.2,44.2,0,0,1-1.5-4.8l1.9-.5a42.6,42.6,0,0,0,1.5,4.7Zm245.7-5.5-1.9-.5c.4-1.6.9-3.2,1.2-4.8l2,.5C274.6,181.1,274.2,182.7,273.7,184.3ZM25.2,180.1c-.4-1.6-.8-3.2-1.1-4.9l1.9-.4c.4,1.6.7,3.3,1.1,4.9Zm250.9-5.6-2-.4.9-4.8,1.9.3C276.7,171.2,276.4,172.9,276.1,174.5ZM23.2,170.3c-.3-1.7-.5-3.4-.7-5l1.9-.3c.2,1.7.5,3.3.7,5Zm254.4-5.7-2-.3c.2-1.6.4-3.2.5-4.9l2,.2C278,161.2,277.8,162.9,277.6,164.6ZM21.9,160.3l-.3-5.1h2l.3,4.9Zm256.5-5.8h-2c.1-1.7.1-3.4.1-5v-1.4h2v1.4C278.5,151.2,278.5,152.9,278.4,154.5ZM21.5,150.2v-.7c0-1.4,0-2.9.1-4.3h2c-.1,1.4-.1,2.9-.1,4.3v.7Zm254.8-7.1c0-1.6-.2-3.3-.3-4.9l2-.2c.1,1.7.3,3.4.3,5ZM23.8,140.3h-2c.2-1.7.3-3.4.5-5.1l2,.3C24.1,137,23.9,138.7,23.8,140.3Zm251.7-7c-.2-1.7-.5-3.3-.8-4.9l2-.4c.3,1.7.5,3.4.8,5ZM24.9,130.4l-2-.3.9-4.9,2,.3Zm248.9-6.9c-.3-1.6-.7-3.3-1.1-4.8l2-.5c.4,1.6.7,3.2,1.1,4.9Zm-247-2.8-2-.5c.4-1.6.8-3.2,1.3-4.8l1.9.5Zm244.6-6.8c-.4-1.6-1-3.2-1.5-4.8l1.9-.6a44.2,44.2,0,0,1,1.5,4.8Zm-242-2.8-1.9-.6,1.6-4.8,1.9.7C30.5,108,29.9,109.6,29.4,111.1Zm238.9-6.6c-.6-1.6-1.3-3.1-1.9-4.6l1.8-.8c.7,1.5,1.3,3.1,1.9,4.7ZM32.8,101.8,31,101c.6-1.5,1.3-3.1,2-4.6l1.8.8C34.1,98.7,33.4,100.3,32.8,101.8Zm231.6-6.4-2.2-4.5,1.7-.9c.8,1.5,1.6,3,2.3,4.5ZM36.9,92.7l-1.8-.9,2.4-4.4,1.7.9C38.4,89.8,37.7,91.3,36.9,92.7Zm222.9-6.1c-.8-1.4-1.7-2.8-2.6-4.2l1.7-1.1,2.6,4.3ZM41.7,84.1,40,83l2.7-4.2,1.7,1.1Q43.1,81.9,41.7,84.1Zm212.8-5.9-2.9-4,1.6-1.2,3,4.1ZM47.2,75.8l-1.6-1.2,3-4,1.6,1.2Zm201.4-5.5c-1-1.3-2.1-2.6-3.2-3.8l1.5-1.4,3.3,3.9ZM53.3,67.9l-1.5-1.2c1-1.3,2.2-2.6,3.3-3.8l1.5,1.3Zm188.8-5.1-3.5-3.6,1.4-1.4,3.6,3.6ZM60,60.6l-1.4-1.4c1.1-1.2,2.4-2.4,3.6-3.5l1.3,1.5C62.3,58.3,61.1,59.4,60,60.6Zm175-4.8c-1.2-1.1-2.4-2.2-3.7-3.2l1.3-1.6,3.8,3.4Zm-167.8-2-1.3-1.5,3.9-3.2L71,50.7Zm160.2-4.3-4-3,1.2-1.6c1.4.9,2.7,2,4.1,3ZM75,47.6,73.8,46l4.1-2.9L79,44.8Zm144.4-3.9L215.2,41l1-1.7,4.3,2.7ZM83.2,42.1l-1.1-1.7,4.3-2.6,1,1.7Zm127.6-3.5-4.4-2.3.9-1.8,4.5,2.3Zm-119-1.4-1-1.8,4.5-2.2.9,1.8C94.7,35.7,93.2,36.4,91.8,37.2ZM202,34.1l-4.6-1.9.7-1.9,4.7,2ZM100.7,33l-.8-1.9c1.6-.6,3.1-1.3,4.7-1.8l.7,1.8Zm92-2.6L188,28.8l.6-1.9,4.8,1.6ZM110,29.5l-.7-1.9a44.2,44.2,0,0,1,4.8-1.5l.6,1.9C113.1,28.5,111.5,28.9,110,29.5Zm73.3-2.1-4.8-1.2.4-1.9,4.9,1.2Zm-63.8-.7-.5-1.9,4.9-1.2.4,2Zm54.1-1.5-4.9-.8.3-2,5,.8Zm-44.4-.5-.3-2,5-.7.2,2Zm34.6-1-4.9-.4v-2l5,.5ZM139,23.5v-2l5-.4v2Zm14.9-.4h-5V21H154Z"/><path class="cls-2" d="M150,219.7a10,10,0,0,1-10-10V89.3a10,10,0,0,1,20,0V209.7A10,10,0,0,1,150,219.7Z"/><path class="cls-2" d="M210.2,159.5H89.8a10,10,0,0,1,0-20H210.2a10,10,0,0,1,0,20Z"/></svg>