<svg id="Layer_1" data-name="Layer 1" xmlns="http://www.w3.org/2000/svg" viewBox="0 0 300 300"><path d="M144.5,12h10.2l1.8.5A47.2,47.2,0,0,1,178.4,21c14.3,10.1,21.6,24.1,22.1,41.6.1,3,0,6,0,9.2h38.8c5,0,8.1,2.8,8.7,7.7.8,6.6,1.4,13.1,2.1,19.6l5.1,48.4,5.7,54.1,5.1,49c1,9.1,2,18.2,2.9,27.3.6,6.4-2.8,10-9.3,10H41.2c-5.1,0-8.7-1.4-10.9-6v-5.4a14.6,14.6,0,0,0,.5-2l1.8-17.4q4.6-44.8,9.5-89.7c3-29,6-58.1,9.1-87.1.7-6,3.6-8.6,9.8-8.6H98.8V62.4a51.1,51.1,0,0,1,37.6-48.6C139.1,13,141.8,12.6,144.5,12Zm56.1,76.3c0,.9-.1,1.5-.1,2.2,0,5.2.1,10.4,0,15.6a8.3,8.3,0,0,1-16.5.3c-.1-1.8,0-3.6,0-5.4V88.3H115.3v2.8c0,4.7.1,9.5,0,14.3s-3.3,9-8.1,9.1-8.3-3.7-8.4-9.2v-17h-32L47.6,271.4H251.7c-.1-1-.2-1.7-.3-2.5-1-9.4-1.9-18.8-2.9-28.1-1.9-17.9-3.8-35.7-5.6-53.6l-5.7-53.8c-1.5-14.3-3-28.6-4.4-42.9-.2-2-1.1-2.4-2.9-2.4H200.6Zm-85-16.7h68.3c0-3.6.1-7.1,0-10.5a34.3,34.3,0,0,0-59.2-21.9C116,48.4,114.4,59.5,115.6,71.6Z"/></svg>