<?xml version="1.0" encoding="utf-8"?>
<!-- Generator: Adobe Illustrator 25.0.1, SVG Export Plug-In . SVG Version: 6.00 Build 0)  -->
<svg version="1.2" baseProfile="tiny" id="Layer_1" xmlns="http://www.w3.org/2000/svg" xmlns:xlink="http://www.w3.org/1999/xlink"
	 x="0px" y="0px" viewBox="0 0 300 300" overflow="visible" xml:space="preserve">
<g>
	<g>
		<g>
			<path fill="#D3D3D3" d="M148.3,61.3c1.1,0,2.3,0,3.4,0c4.3,0.3,8.7,0.7,13,1.1c20.1,1.9,39.1,7.9,57,17.3
				c25.6,13.4,46.8,32.2,65,54.8c3.3,4.1,6,8.8,9,13.2c0,1.6,0,3.1,0,4.6c-0.9,1.7-1.5,3.6-2.6,5.1c-19.7,26.4-43.3,48.5-72.6,63.6
				c-17.5,9-36,14.7-55.5,16.6c-4.4,0.4-8.8,0.8-13.3,1.1c-1.1,0-2.3,0-3.4,0c-4.3-0.3-8.7-0.7-13-1.1c-20.1-1.9-39.1-7.9-57-17.3
				c-25.6-13.4-46.8-32.2-65-54.8c-3.4-4.1-6-8.8-9-13.2c0-1.6,0-3.1,0-4.6c0.9-1.7,1.5-3.6,2.6-5.1C26.7,116.1,50.2,94.1,79.5,79
				C97,70,115.5,64.3,135,62.4C139.5,62,143.9,61.7,148.3,61.3z M88.8,148.1c-0.6,34.9,26.1,63.8,59.4,64.3
				c34,0.5,62.4-26.7,62.9-60.5c0.6-34.9-26.1-63.8-59.4-64.3C117.6,87.1,89.4,114.2,88.8,148.1z"/>
			<path fill="#D3D3D3" d="M150.2,116.4c17.9,0,32.8,15,32.8,33c0.1,19-14.8,34.2-33.2,34.2c-17.9-0.1-32.7-15.1-32.7-33.4
				C117,131.6,132,116.4,150.2,116.4z"/>
		</g>
	</g>
</g>
</svg>
