<svg id="Layer_1" data-name="Layer 1" xmlns="http://www.w3.org/2000/svg" viewBox="0 0 300 300"><path d="M138.4,22c6.2.7,12.4,1.1,18.5,2.3C208.6,35.1,243,65,258.2,116.1a16.7,16.7,0,0,0,.7,2c.7-1.3,1.2-2.2,1.6-3.1L274,89.3a9.3,9.3,0,0,1,10.1-5.1,8.5,8.5,0,0,1,7.5,7.3,12.8,12.8,0,0,1-1.1,7c-9.4,18.2-19,36.2-28.6,54.3-3.2,6.2-8.2,7.6-14.6,4.3l-39.6-20.7-14.2-7.5c-5.7-3-7.7-8.5-5-13.5s8.3-6.3,13.9-3.4l37.4,19.7,2.4,1.1a100.3,100.3,0,0,0-8.7-29.3c-16.6-34.3-44.1-54.4-81.3-60.8C91,32.3,44,72.6,30.4,119.2c-17.9,61.2,23.5,127.2,86.4,137.3,29.4,4.8,56.7-1.6,81.2-18.8,2.6-1.8,5.2-3.3,8.5-2.7a8.9,8.9,0,0,1,7.6,7,8.8,8.8,0,0,1-3.7,10.1,112.2,112.2,0,0,1-30.6,16.6c-42.1,14.6-82.1,10.8-118.6-15.4-29.1-20.8-46.1-49.6-52.1-84.8C-1.9,105.1,38.4,50.9,85,31.9a124.4,124.4,0,0,1,40.7-9.4l3.2-.5Z"/></svg>