<svg id="Layer_1" data-name="Layer 1" xmlns="http://www.w3.org/2000/svg" viewBox="0 0 300 300"><path d="M171,22c5.9.7,11.8,1.2,17.6,2.2,33.4,6,59.8,23.2,79.8,50.5s26.9,54.9,23.5,86.8c-5.5,51.2-41.2,97.3-92.6,110.9-39.3,10.4-76,3.7-109.3-19.9-4.8-3.4-5.9-9.1-2.9-13.5s8.9-5.5,13.8-2c14.8,10.6,31.1,17.6,49.2,19.8,41.9,5.1,76.1-9,101.5-42.7,27.2-36,29.5-84.1,6.1-121.2-17.4-27.8-42.2-45.4-74.9-50.5C128,33.8,68.4,67.9,57.9,131.4a7.4,7.4,0,0,0,0,1.5L80,121.2l17.8-9.4c5.4-2.7,11-1.2,13.6,3.5s.8,10.6-4.7,13.5L52.4,157.2c-6.3,3.2-11.2,1.7-14.4-4.4L9.4,98.6C7.1,94.2,7.6,90,10.7,86.8s7.6-3.8,11.1-1.6a14.4,14.4,0,0,1,4.5,5c4.5,8.2,8.7,16.5,13.1,24.8a21.9,21.9,0,0,0,1.6,2.9,15.7,15.7,0,0,0,.7-1.8c14.6-49.5,47.7-79.3,97.6-91,6.3-1.5,12.9-1.8,19.3-2.6l2.9-.5Z"/></svg>