<svg width="104" height="104" viewBox="0 0 104 104" fill="none" xmlns="http://www.w3.org/2000/svg">
<g clip-path="url(#clip0_186_56)">
<path d="M103.84 20.9022C103.515 21.3897 103.251 21.9788 102.825 22.3647C101.911 23.2178 100.794 23.4007 99.6357 22.9132C98.3966 22.385 97.7872 21.3897 97.7669 20.049C97.7466 15.8645 97.7669 11.68 97.7669 7.47525C97.7669 7.06898 97.7669 6.66272 97.7669 6.09396C97.3809 6.09396 97.0356 6.09396 96.67 6.09396C92.4042 6.09396 88.1588 6.11427 83.8931 6.09396C81.5368 6.07365 80.0336 3.90015 80.9477 1.84854C81.4555 0.690692 82.3899 0.0406748 83.6493 0.0203617C89.3776 4.86942e-05 95.1262 4.86942e-05 100.854 0.0203617C102.378 0.0203617 103.19 1.0157 103.84 2.23448C103.84 8.45027 103.84 14.6661 103.84 20.9022Z" fill="black"/>
<path d="M2.25487 103.84C0.50795 103.028 -0.0405022 101.646 0.000123883 99.7573C0.081376 94.5978 0.0204369 89.418 0.0204369 84.2585C0.0204369 82.085 1.17828 80.724 3.02677 80.7037C4.93619 80.6834 6.09403 82.0444 6.09403 84.2991C6.09403 88.382 6.09403 92.4853 6.09403 96.5682C6.09403 96.9338 6.09403 97.2995 6.09403 97.7667C7.04875 97.7667 7.92221 97.7667 8.77535 97.7667C12.2489 97.7667 15.7427 97.7667 19.2163 97.7667C21.4507 97.7667 22.6085 98.4573 23.0554 100.001C23.482 101.525 22.771 102.784 20.9022 103.84C14.6864 103.84 8.47066 103.84 2.25487 103.84Z" fill="black"/>
<path d="M82.958 103.84C82.4501 103.475 81.8408 103.19 81.4345 102.743C80.6017 101.809 80.4595 100.671 80.9876 99.5338C81.5361 98.3557 82.5314 97.7666 83.8111 97.7666C88.0565 97.7666 92.3223 97.7666 96.5677 97.7666C96.9333 97.7666 97.299 97.7666 97.7459 97.7666C97.7459 96.5884 97.7459 95.5322 97.7459 94.4556C97.7459 91.1852 97.7459 87.8945 97.7459 84.6241C97.7459 82.41 98.4365 81.2318 100.001 80.7849C101.544 80.3583 102.783 81.049 103.84 82.9584C103.84 89.1742 103.84 95.39 103.84 101.606C103.352 102.601 102.601 103.353 101.605 103.84C95.3896 103.84 89.1738 103.84 82.958 103.84Z" fill="black"/>
<path d="M51.961 17.8755C62.1582 17.8755 72.3756 17.8755 82.5728 17.8755C84.6447 17.8755 85.1322 18.3833 85.1322 20.4552C85.1322 26.3257 85.1322 32.2165 85.1322 38.087C85.1322 40.0167 84.6041 40.5448 82.654 40.5448C79.993 40.5448 77.3117 40.5448 74.6507 40.5448C73.1272 40.5448 72.4975 39.9354 72.4975 38.3917C72.4772 36.4619 72.4975 34.5322 72.4975 32.6228C72.4772 31.1196 71.9084 30.5102 70.4053 30.5102C67.0536 30.4899 63.7223 30.4899 60.3706 30.5102C58.8878 30.5102 58.2581 31.1602 58.2581 32.6228C58.2581 48.2028 58.2581 63.7829 58.2581 79.363C58.2581 80.8256 58.8878 81.4553 60.3706 81.4756C61.7519 81.4959 63.1332 81.4553 64.5348 81.4959C65.7942 81.5162 66.4036 82.1053 66.4239 83.3647C66.4442 86.3101 66.4442 89.2352 66.4239 92.1806C66.4036 93.4603 65.7536 94.09 64.4536 94.09C56.1455 94.1103 47.8375 94.1103 39.5091 94.09C38.1482 94.09 37.4982 93.4603 37.4778 92.1196C37.4575 89.2149 37.4575 86.3101 37.4778 83.4053C37.4982 82.085 38.1075 81.4959 39.4279 81.4756C40.8092 81.4553 42.1905 81.4959 43.5921 81.4553C45.014 81.435 45.6437 80.785 45.6437 79.4037C45.6437 63.7829 45.6437 48.1825 45.6437 32.5618C45.6437 31.1602 44.9937 30.5102 43.5718 30.5102C40.1998 30.4899 36.8075 30.4899 33.4355 30.5102C32.0136 30.5102 31.4246 31.1399 31.4042 32.5821C31.3839 34.5119 31.4042 36.4416 31.4042 38.351C31.3839 39.9558 30.7745 40.5448 29.1901 40.5448C26.4479 40.5448 23.7259 40.5448 20.9837 40.5448C19.3789 40.5448 18.7695 39.9354 18.7695 38.351C18.7695 32.2774 18.7695 26.1835 18.7695 20.1099C18.7695 18.4646 19.3789 17.8958 21.0649 17.8755C31.3433 17.8755 41.6623 17.8755 51.961 17.8755Z" fill="black"/>
<path d="M6.11422 6.09396C6.11422 6.86586 6.11422 7.49556 6.11422 8.12526C6.11422 12.1066 6.13454 16.088 6.11422 20.0896C6.09391 21.8975 4.75325 23.1772 3.02664 23.1569C1.36097 23.1366 0.0609384 21.8366 0.0406254 20.0896C0.0203124 14.4426 0.0203124 8.81591 0.0406254 3.16888C0.0406254 1.3204 1.32035 0.0406748 3.16883 0.0203617C8.79554 4.86937e-05 14.4426 4.86937e-05 20.0693 0.0203617C21.8771 0.0203617 23.1772 1.36102 23.1569 3.08763C23.1365 4.81424 21.8365 6.09396 20.0083 6.09396C15.8035 6.09396 11.5784 6.09396 7.35332 6.09396C6.98768 6.09396 6.62205 6.09396 6.11422 6.09396Z" fill="black"/>
</g>
<defs>
<clipPath id="clip0_186_56">
<rect width="103.84" height="103.84" fill="white"/>
</clipPath>
</defs>
</svg>
